<svg xmlns="http://www.w3.org/2000/svg" xmlns:xlink="http://www.w3.org/1999/xlink" width="2048" zoomAndPan="magnify" viewBox="0 0 1536 1535.999932" height="2048" preserveAspectRatio="xMidYMid meet" version="1.0"><rect x="-153.6" width="1843.2" fill="none" y="-153.599993" height="1843.199919" fill-opacity="0"/><rect x="-153.6" width="1843.2" fill="none" y="-153.599993" height="1843.199919" fill-opacity="0"/><path stroke-linecap="butt" transform="matrix(0.024576, 0, 0, -0.024576, 3.000034, 1568.891797)" fill-opacity="1" fill="#004aad" fill-rule="nonzero" stroke-linejoin="miter" d="M 31284.97029 52450.07485 C 30906.997326 52438.948648 30210.020266 52404.934261 29955.071303 52385.066043 C 29856.048109 52376.959811 29689.949813 52362.972586 29585.045626 52355.025299 C 29480.936168 52347.078012 29355.051143 52335.95181 29304.983236 52330.070818 C 29256.027949 52324.984555 29160.978398 52315.924648 29095.015917 52310.043655 C 28722.923945 52276.982942 28310.936593 52227.07398 27605.058571 52129.00446 C 27047.953761 52052.074723 25935.015706 51844.968427 25349.936445 51710.023495 C 25276.026677 51693.016302 25187.970738 51672.989139 25155.068971 51665.041852 C 25085.927575 51649.942007 24435.998453 51490.996269 24416.924965 51484.956331 C 24411.043973 51483.048982 24342.061523 51464.929168 24264.97284 51443.948331 C 24126.054265 51408.026594 23595.016555 51257.028143 23489.953423 51223.96743 C 23460.071624 51215.066468 23388.069205 51192.973011 23330.054011 51174.058468 C 23272.038816 51155.938654 23158.074722 51120.970592 23074.946102 51095.062436 C 22610.983493 50951.057598 22421.043337 50887.95614 22010.009659 50739.977658 C 21378.041406 50513.003145 21113.078861 50406.986338 20472.050701 50121.042956 C 20139.059381 49973.064474 19464.016833 49634.98689 19244.989606 49507.035571 C 18531.005353 49086.941986 18236.002064 48883.968279 17785.073006 48501.067997 C 17519.951515 48276.000833 17193.953807 47911.061419 17038.028039 47662.947122 C 16836.96168 47342.989353 16716.957648 46996.964482 16701.063075 46690.040262 C 16688.983199 46454.005842 16718.070269 46265.01936 16805.967262 46007.050427 C 16926.924968 45654.985618 17144.99852 45356.008686 17570.019423 44961.982202 C 17914.931673 44642.024432 18353.939801 44322.066662 18805.027804 44062.031435 C 18877.030224 44021.023435 19018.015093 43938.05376 19120.058257 43877.018597 C 19221.942474 43816.937108 19388.04077 43723.000177 19489.924988 43670.071246 C 19972.961085 43414.963337 20270.984343 43259.991243 20449.957244 43173.047924 C 20674.070734 43063.057474 20950.954209 42930.019891 20954.927852 42930.019891 C 20956.994147 42930.019891 21029.950241 42896.005504 21117.052505 42854.043829 C 21478.018275 42679.998246 21551.928043 42645.030184 21690.051889 42583.041346 C 21770.001595 42546.960664 21863.938526 42504.998989 21900.019209 42487.991795 C 21935.940945 42471.938275 22028.924202 42429.022926 22108.079179 42394.054864 C 22185.962591 42357.974181 22332.987398 42291.058026 22432.964267 42243.056413 C 22586.029013 42171.053994 22909.960426 42028.956504 23414.931035 41814.061867 C 23818.9711 41641.923633 24236.044715 41475.984283 24652.005711 41318.945894 C 24947.009 41208.001769 25118.988288 41146.966606 25514.922121 41009.95538 C 25592.010804 40984.047225 25726.955735 40936.045612 25815.011674 40905.051193 C 26021.00535 40831.936154 26641.052672 40624.988803 26834.966472 40565.06626 C 26917.936147 40538.999159 27088.961761 40484.003934 27215.005731 40442.995934 C 27722.996309 40278.010258 28936.070179 39921.018131 29605.072789 39739.978936 C 29732.070433 39705.010874 29891.016171 39661.936579 29959.998621 39643.022036 C 30125.937971 39598.040392 31043.054878 39372.019553 31445.028648 39276.016328 C 31810.921736 39190.026684 31881.970481 39173.973164 32259.943445 39090.049815 C 32410.941896 39056.035427 32575.927572 39019.954744 32625.041805 39008.987488 C 32755.059418 38980.059364 33184.053964 38895.023395 33400.061222 38854.969069 C 33501.94544 38836.054526 33657.07648 38807.92113 33744.973473 38791.072882 C 34008.028668 38741.958649 34653.984146 38634.988168 34800.055279 38616.073625 C 34825.00976 38613.053656 35007.00263 38587.940229 35205.049019 38559.965779 C 35750.073953 38484.943391 36156.021367 38441.074368 36705.019945 38401.020042 C 36853.952102 38390.052786 37031.017653 38376.065561 37100.000104 38370.979297 C 37347.00178 38350.952134 37984.056297 38335.057561 38459.939835 38336.011235 C 39385.957703 38336.96491 40301.008315 38417.073561 40974.938243 38553.925841 C 41096.054895 38579.039268 41121.009376 38583.966586 41354.977501 38641.028106 C 42143.984143 38830.968262 42692.982721 39097.043427 43038.053918 39454.035554 C 43206.059563 39627.922191 43304.923811 39818.974968 43344.024463 40045.949481 C 43371.998913 40203.941544 43358.965362 40337.932801 43299.996494 40521.038291 C 43196.045981 40840.042387 42891.02911 41228.982607 42500.022596 41540.99309 C 42252.067245 41739.039479 41914.943335 41972.05393 41745.030342 42065.037187 C 41712.923303 42082.044381 41481.021471 42219.055607 41415.05899 42260.063607 C 41322.075734 42316.966181 41062.994181 42450.957438 40880.047637 42535.039733 C 40788.97173 42577.001408 40688.041186 42624.049346 40654.980473 42639.94392 C 40465.993991 42730.066153 40294.968377 42804.929596 40139.996283 42864.05741 C 40043.993057 42900.932821 39927.008994 42947.027085 39879.961056 42964.987954 C 39497.060774 43116.940079 38979.056615 43297.0256 38685.007 43379.995275 C 38543.068456 43420.049601 38329.922222 43482.038438 38105.014003 43550.067214 C 37796.977163 43641.937851 36802.93052 43880.99224 36485.039045 43939.007434 C 36419.076563 43950.928365 36293.032593 43973.975497 36204.976655 43990.98269 C 35841.94459 44058.057792 35459.997982 44120.046629 35411.996369 44120.046629 C 35343.013919 44120.046629 35315.993144 44107.966753 35285.952399 44062.98511 C 35216.969949 43962.054566 35280.071407 43904.039372 35514.993207 43854.925139 C 35700.006046 43815.983433 35915.059629 43760.034534 36400.003075 43623.976982 C 36529.067014 43588.055245 36682.926488 43544.980951 36742.054302 43530.040051 C 36918.960908 43482.038438 37526.928355 43290.031987 37730.061008 43215.963274 C 38023.951677 43111.059087 38290.026842 43010.923272 38506.987774 42926.046248 C 38554.989386 42906.972759 38667.046131 42865.011085 38754.943124 42831.950371 C 38895.927994 42779.021441 39175.990384 42662.991052 39327.942509 42594.008602 C 39357.029579 42580.975051 39381.98406 42570.007796 39384.050354 42570.007796 C 39395.971284 42570.007796 39930.028963 42316.012507 40178.937988 42192.034831 C 41124.029345 41721.078611 41797.959272 41283.977832 42195.9594 40885.977705 C 42404.973045 40676.010385 42503.042565 40527.078229 42545.00424 40352.078972 C 42559.945139 40291.043809 42561.057759 40271.016646 42551.044178 40223.015033 C 42489.05534 39911.958224 42082.94898 39613.934966 41480.067797 39436.074686 C 41045.033313 39307.964421 40746.05638 39245.975583 40239.973152 39179.059428 C 39443.972897 39073.042621 38633.031744 39047.929194 37649.952356 39098.950776 C 36776.06869 39145.04504 36488.059014 39172.065815 35464.9253 39306.057072 C 35051.984274 39359.939677 34385.047958 39464.049135 34159.980794 39509.984454 C 34108.005537 39519.998035 33950.013474 39550.03878 33809.982279 39574.99326 C 33195.974895 39685.937385 32753.946798 39776.059619 32204.94822 39904.964612 C 32050.9298 39941.045294 31819.027969 39994.927899 31689.96403 40024.968644 C 31561.059037 40055.009388 31390.033423 40095.063714 31309.924771 40113.978257 C 31058.949451 40172.947126 30413.947648 40339.045421 30179.979522 40405.007903 C 30056.001847 40439.975965 29876.075272 40488.931252 29780.072046 40514.044679 C 29684.06882 40538.999159 29565.018463 40570.947253 29514.950555 40586.047098 C 29465.995268 40600.034323 29396.059144 40620.061486 29359.978461 40630.075067 C 29214.066274 40669.016773 28770.925557 40797.921766 28490.068439 40882.004061 C 28275.014856 40946.059194 28216.999662 40963.066388 28085.074699 40999.941799 C 27935.983597 41042.062419 27678.968339 41122.9658 26985.011249 41348.032964 C 26216.985444 41596.941989 26171.050126 41612.995509 25990.010931 41680.07061 C 25942.962992 41698.031479 25849.026062 41730.933246 25780.043611 41754.934053 C 25571.029966 41826.936472 25293.987546 41927.072287 25145.055389 41984.928535 C 25107.067358 42000.02838 25026.005032 42028.956504 24964.969868 42049.937342 C 24905.047325 42071.077125 24769.943448 42121.939761 24665.039261 42162.947761 C 24560.929803 42203.955762 24421.057554 42258.950987 24354.936127 42285.018088 C 24288.973646 42309.972569 24195.036715 42347.006926 24144.968808 42367.034089 C 24096.013521 42385.948631 24033.071008 42409.949438 24004.937613 42419.963019 C 23978.075783 42429.976601 23818.017425 42497.051702 23650.011781 42570.007796 C 23482.006136 42642.963889 23301.920615 42720.052572 23249.945359 42741.987084 C 23128.987652 42793.008666 22717.953975 42994.075024 22620.0434 43050.023923 C 22579.0354 43074.02473 22520.066531 43106.926497 22490.025787 43123.933691 C 22045.931396 43373.001662 21697.045502 43613.009726 21399.975918 43873.044953 C 21142.96066 44097.953172 20928.066023 44330.013949 20810.923014 44508.98685 C 20733.039603 44629.944556 20609.061927 44879.012527 20576.954888 44979.94307 C 20535.946888 45108.053335 20510.992407 45250.945553 20503.998795 45390.023074 C 20499.071477 45496.039881 20500.978826 45531.007943 20520.052314 45620.017556 C 20555.020376 45791.996844 20623.049152 45980.029652 20724.93337 46185.069653 C 20861.944596 46464.019423 20991.962209 46649.985936 21190.008598 46855.025938 C 21324.95353 46993.944513 21340.053375 47014.92535 21340.053375 47057.04597 C 21340.053375 47085.974095 21330.993468 47101.07394 21295.071731 47137.949351 C 21254.063731 47178.957351 21247.070118 47181.97732 21213.05573 47177.050002 C 21165.054118 47168.94377 21110.058892 47130.955738 20904.065216 46964.062714 C 20637.036377 46746.942836 20444.076251 46557.956354 20318.032282 46389.950709 C 20084.064156 46076.986552 19964.060124 45844.925775 19885.064092 45555.962424 C 19828.002572 45348.061399 19817.988991 45197.062948 19845.963441 44985.029334 C 19873.93789 44765.048433 19928.933116 44590.049176 20051.957117 44331.921298 C 20095.031412 44241.95801 20096.93876 44213.98356 20061.970698 44217.003529 C 20020.962698 44221.930847 19295.057514 44652.991688 18932.979123 44888.072434 C 18506.050872 45164.955909 18012.047519 45596.01675 17796.993936 45877.986488 C 17553.965903 46196.036909 17480.056135 46441.925966 17533.93874 46748.055456 C 17604.033811 47140.96932 17934.005162 47606.998223 18428.008515 48012.945637 C 18785.000642 48306.041577 19138.019125 48543.983346 19564.947376 48781.925116 C 19659.043253 48834.059318 19814.015347 48921.002636 19909.064898 48975.044187 C 20082.951535 49072.001087 20418.009151 49239.053057 20705.065153 49370.97802 C 20788.034828 49408.966051 20861.944596 49443.934113 20870.050828 49449.020377 C 20877.998115 49452.99402 20925.999728 49473.974858 20974.955015 49494.955695 C 21025.022923 49514.982858 21169.027761 49579.03799 21295.071731 49634.98689 C 21710.079052 49822.066023 21931.967302 49912.982985 22160.054436 49991.979017 C 22222.996948 50014.072474 22304.059274 50042.046924 22339.981011 50054.921529 C 22894.065852 50255.987887 23451.011717 50444.974369 23739.975068 50530.010339 C 23835.978294 50558.938463 24000.963969 50608.052696 24105.073428 50640.000789 C 24209.977614 50671.948883 24455.071942 50739.023984 24649.939416 50790.045566 C 24844.965837 50841.067148 25078.933962 50900.989691 25170.00987 50924.990497 C 25260.926832 50948.991303 25406.997965 50985.071986 25495.053904 51004.940203 C 25581.997222 51024.967366 25657.01961 51042.928234 25660.039579 51044.994529 C 25663.059548 51047.060824 25756.996479 51068.995335 25870.006899 51093.949816 C 25983.017318 51119.063243 26135.923118 51154.031305 26209.991832 51169.925879 C 26332.062158 51198.059274 26445.072578 51222.060081 26920.002442 51320.92433 C 26999.952148 51336.977849 27098.975343 51357.005012 27139.983343 51364.952299 C 27503.969082 51435.047369 27619.045796 51456.028207 27849.993953 51495.923587 C 28528.05647 51613.066595 29008.072598 51682.049046 29874.962651 51785.045884 C 29996.079303 51799.033109 30185.065786 51821.921295 30295.056236 51834.954845 C 30584.973262 51869.922908 31198.026972 51923.964458 31600.000742 51950.031559 C 32416.02816 52002.96049 32724.064999 52018.060335 33260.030027 52030.93494 C 33984.981536 52049.054754 34755.073636 52035.067529 35377.028307 51994.059529 C 35586.995627 51980.072304 35634.997239 51978.959684 35661.06434 51989.92694 C 35703.026015 52008.046754 35724.006852 52057.955715 35714.946945 52118.037204 C 35704.933364 52183.999685 35679.025209 52204.980523 35589.061921 52218.014073 C 35319.966787 52258.068399 34502.032021 52339.925454 34019.949599 52375.052462 C 33565.046897 52407.95423 33510.051672 52410.974199 32822.929248 52440.061269 C 32481.990641 52454.048494 31648.002355 52458.975811 31284.97029 52450.07485 Z M 31284.97029 52450.07485 " stroke="#004aad" stroke-width="1" stroke-opacity="1" stroke-miterlimit="4"/><path stroke-linecap="butt" transform="matrix(0.024576, 0, 0, -0.024576, 3.000034, 1568.891797)" fill-opacity="1" fill="#004aad" fill-rule="nonzero" stroke-linejoin="miter" d="M 29410.046369 47040.038777 C 28333.983724 47013.018001 27241.072832 46947.05552 26110.014963 46839.926093 C 26051.999769 46834.998775 25969.030093 46828.005162 25925.002124 46824.031519 C 25732.995673 46810.044294 25671.96051 46790.970806 25644.939734 46739.949224 C 25616.965284 46686.066619 25629.998835 46639.01868 25685.947735 46601.030649 C 25719.962123 46577.983517 25722.982092 46577.029843 25883.040449 46584.023455 C 25972.050062 46587.997099 26103.975025 46594.990711 26175.02377 46600.076975 C 26329.042189 46611.04423 26874.067124 46635.045037 27329.9235 46649.985936 C 27832.986759 46666.99313 28920.016659 46657.933223 29500.009656 46632.025068 C 29767.038495 46619.945192 30110.997072 46605.957967 30265.015492 46600.076975 C 30419.033911 46594.990711 30618.987649 46585.930804 30710.063557 46580.049812 C 30800.980519 46574.963548 30965.01252 46566.062587 31075.002971 46560.022649 C 31287.036585 46549.055393 31963.986482 46496.921191 32114.984933 46480.072943 C 32165.05284 46474.986679 32282.036903 46463.065749 32375.020159 46454.959516 C 32598.974704 46434.932353 32746.953186 46419.037779 33209.962119 46364.996229 C 33659.937503 46312.067298 33912.025443 46279.006584 34700.07841 46169.016134 C 35144.96753 46107.027296 36074.959041 45956.98252 36420.030238 45891.020039 C 37042.938584 45772.923356 37627.06417 45654.985618 37913.007552 45590.930486 C 38035.077878 45562.956036 38249.972516 45516.067044 38390.003711 45485.072625 C 38530.034906 45454.078206 38681.033356 45420.063818 38725.061326 45410.050237 C 38768.930349 45398.924035 38878.9208 45374.923229 38969.996707 45355.055011 C 39061.072615 45335.027848 39175.990384 45308.007073 39224.945671 45294.973522 C 39275.013578 45281.939972 39378.010416 45255.078142 39454.940153 45235.050979 C 39532.028836 45215.023816 39628.985736 45190.069336 39669.993736 45177.98946 C 39711.001737 45167.022204 39912.068095 45113.934327 40115.041802 45060.051722 C 40813.92621 44873.926263 41175.050926 44763.935813 41810.039148 44546.974881 C 42884.035498 44178.061824 43310.963749 44011.009853 44140.024717 43631.924269 C 44462.048782 43485.058407 45008.027391 43201.022374 45245.015486 43057.97121 C 45636.022 42820.029441 46119.058097 42480.998182 46319.96551 42302.025282 C 46567.92086 42080.931761 46805.067901 41828.049092 46906.952119 41674.984347 C 47102.932213 41383.001027 47186.060834 41166.040095 47224.048866 40844.969704 C 47238.03609 40731.005611 47162.060028 40415.975158 47074.957764 40223.015033 C 46892.011219 39821.994937 46418.03503 39351.99239 45780.980513 38940.005038 C 45438.929286 38719.070463 45300.010711 38638.008137 44909.957871 38432.014461 C 44268.92971 38093.936877 43904.943971 37932.924844 43049.974848 37609.947105 C 42916.937266 37558.925524 42403.065696 37385.992561 42366.031339 37378.998948 C 42329.950656 37372.005336 42338.056889 37351.978173 42376.998595 37348.958204 C 42397.979432 37347.050855 42890.075436 37347.050855 43470.068433 37350.070824 L 44524.991294 37354.998142 L 44565.04562 37376.932654 C 44586.980132 37389.01253 44675.989745 37430.974205 44762.933063 37470.074856 C 44850.035327 37509.016562 44929.031359 37544.938299 44937.93232 37550.024562 C 44947.945902 37554.95188 45070.016228 37615.033369 45210.047423 37683.062145 C 45677.983675 37908.924038 46069.943864 38141.938489 46525.005511 38463.962554 C 46970.053577 38778.039332 47437.989828 39245.975583 47691.985117 39629.034811 C 47771.934823 39749.992518 47894.958824 39994.927899 47939.940468 40124.945513 C 47979.04112 40237.955932 48025.930112 40421.061422 48041.983632 40525.011934 C 48061.05712 40649.943284 48058.037151 41002.961768 48037.056314 41135.045676 C 47955.993988 41636.042641 47709.945986 42085.06435 47276.024122 42528.999795 C 46854.023188 42958.948016 46527.071806 43215.963274 45955.026096 43569.935431 C 45695.944543 43729.993789 45596.921349 43788.008983 45399.98758 43897.999434 C 45060.956321 44086.985916 44569.019263 44329.060275 44215.047105 44480.058725 C 44160.05188 44502.946912 44036.074205 44556.988462 43940.070979 44600.062757 C 43567.979007 44763.935813 43303.970137 44866.932651 42675.021853 45092.95349 C 42404.01937 45190.069336 42215.986563 45252.058173 41945.937754 45335.027848 C 41825.933722 45370.949585 41718.009566 45404.963973 41705.92969 45410.050237 C 41694.962434 45414.977554 41624.072635 45437.071012 41550.003922 45459.959198 C 40825.052412 45681.052719 39594.971348 45990.996908 38725.061326 46170.923483 C 38064.006003 46307.934709 37944.955645 46331.935515 37724.974744 46371.036167 C 37598.930774 46392.970678 37414.076881 46426.985066 37315.053687 46446.058555 C 37216.030492 46465.926772 37016.076754 46498.987485 36870.005621 46520.921997 C 36723.934488 46542.06178 36520.007107 46573.056199 36414.943974 46590.063393 C 35803.956559 46686.066619 34578.008084 46841.038713 34200.03512 46869.966837 C 34119.926468 46876.006775 34016.92963 46885.066682 33970.040637 46889.994 C 33922.992699 46894.921318 33738.933535 46910.021163 33559.960634 46924.008388 C 32649.042611 46995.057133 32707.057805 46992.037164 31964.940156 47020.011614 C 31300.070135 47046.078715 30048.05456 47054.979676 29410.046369 47040.038777 Z M 29410.046369 47040.038777 " stroke="#004aad" stroke-width="1" stroke-opacity="1" stroke-miterlimit="4"/><path stroke-linecap="butt" transform="matrix(0.024576, 0, 0, -0.024576, 3.000034, 1568.891797)" fill-opacity="1" fill="#004aad" fill-rule="nonzero" stroke-linejoin="miter" d="M 21975.995271 41684.997928 C 21856.944914 41634.930021 21574.021501 41486.951539 21413.963143 41390.948313 C 21155.994211 41235.022545 21029.950241 41140.926668 20890.077991 41001.054419 C 20644.983664 40755.960091 20510.992407 40514.044679 20459.970825 40223.968707 C 20439.943662 40113.978257 20452.023538 39917.998162 20484.925306 39790.046843 C 20579.021183 39427.014779 20895.958984 39002.94755 21334.967111 38654.061656 C 21859.964883 38234.921746 22467.932329 37896.049433 23344.99491 37532.063694 C 23681.959874 37392.032499 23889.06617 37310.970173 24075.032683 37245.007692 C 24162.929676 37214.013273 24264.019165 37177.93259 24299.940902 37165.057986 C 24336.021584 37151.070761 24442.038392 37114.990078 24535.021648 37083.041985 L 24704.934642 37025.026791 L 25764.943766 37022.006822 C 26350.976701 37021.053147 26820.025573 37022.960496 26814.939309 37028.04676 C 26809.058317 37032.974078 26734.989603 37056.021209 26649.953634 37080.022016 C 26491.96157 37124.049985 26456.993508 37135.017241 26059.947055 37265.034855 C 25935.96938 37304.930235 25719.962123 37375.025305 25579.930928 37420.006949 C 25440.058678 37464.988593 25286.993933 37515.0565 25239.945995 37532.063694 C 25193.057002 37547.958268 25053.979482 37597.072501 24930.001806 37639.98785 C 24806.024131 37683.062145 24658.045649 37735.037401 24600.030455 37755.064564 C 24476.052779 37798.933587 24103.960807 37945.00472 24007.003907 37989.03269 C 23969.969551 38006.039884 23896.059783 38037.034302 23842.018232 38058.968814 C 23519.040493 38188.986428 23430.03088 38229.040754 23001.036334 38436.941779 C 22854.011526 38507.990523 22586.029013 38647.068044 22450.925136 38721.931486 C 22274.972204 38820.954681 22012.075954 38992.933969 21859.011208 39110.076978 C 21834.056728 39128.99152 21796.068696 39158.07859 21773.975239 39174.926839 C 21700.065471 39231.034684 21534.920849 39376.946871 21485.011888 39430.988422 C 21392.028631 39530.011617 21279.018212 39680.056393 21234.990242 39763.026068 C 21142.96066 39938.025325 21107.992598 40151.966288 21144.07328 40330.939189 C 21224.022986 40724.965673 21488.985531 41064.950605 21979.968915 41404.935538 C 22229.036886 41577.073772 22235.076824 41586.928408 22155.921846 41673.076998 C 22126.993722 41705.025091 22116.026466 41709.952409 22078.992109 41709.952409 C 22054.991303 41708.998735 22009.055985 41698.031479 21975.995271 41684.997928 Z M 21975.995271 41684.997928 " stroke="#004aad" stroke-width="1" stroke-opacity="1" stroke-miterlimit="4"/><path stroke-linecap="butt" transform="matrix(0.024576, 0, 0, -0.024576, 3.000034, 1568.891797)" fill-opacity="1" fill="#004aad" fill-rule="nonzero" stroke-linejoin="miter" d="M 35137.973918 35652.053509 L 33699.991829 35649.987214 L 33699.991829 34919.949441 L 33743.066124 34919.949441 C 33765.95431 34919.949441 34203.055089 34919.949441 34714.065635 34919.949441 C 35395.94285 34919.949441 35645.964495 34916.929472 35655.978077 34908.982185 C 35668.057953 34898.968603 35669.965302 34623.992477 35669.965302 33165.983225 C 35669.965302 32214.057202 35669.965302 31425.05056 35669.965302 31412.01701 L 35669.965302 31389.923552 L 36087.992592 31391.989847 L 36505.066207 31395.009816 L 36507.927231 33144.048714 C 36509.039851 34417.045127 36513.013494 34897.061255 36520.960781 34907.074836 C 36530.974363 34918.042092 36698.980007 34919.949441 37491.006618 34919.949441 L 38449.926254 34919.949441 L 38449.926254 35279.961537 C 38449.926254 35560.023926 38447.06523 35642.039927 38438.005323 35645.059896 C 38417.978161 35650.940888 36702.953651 35655.073478 35137.973918 35652.053509 Z M 35137.973918 35652.053509 " stroke="#004aad" stroke-width="1" stroke-opacity="1" stroke-miterlimit="4"/><path stroke-linecap="butt" transform="matrix(0.024576, 0, 0, -0.024576, 3.000034, 1568.891797)" fill-opacity="1" fill="#004aad" fill-rule="nonzero" stroke-linejoin="miter" d="M 7880.05147 35635.046315 C 7880.05147 35625.986408 7897.058664 35588.952051 7918.039502 35552.07664 C 8183.955721 35087.955085 8338.927815 34822.038866 8608.022949 34366.977219 C 8670.011787 34263.026707 8719.920748 34177.037063 8719.920748 34175.924443 C 8719.920748 34167.023481 8910.019851 33831.965866 9044.964782 33600.064035 C 9105.046271 33498.020871 9192.943264 33347.022421 9240.944876 33262.940125 C 9290.059109 33179.016776 9349.027978 33077.927287 9373.982459 33038.031907 C 9397.983265 32997.977581 9500.026429 32819.00468 9600.003298 32640.031779 C 9771.028912 32335.968583 9815.056881 32257.926226 9864.965843 32174.002876 C 9891.986618 32128.067558 10210.037039 31559.995492 10249.932419 31484.973104 C 10306.993939 31378.956297 10240.077784 31389.923552 10853.926222 31389.923552 C 11151.949481 31389.923552 11404.037421 31392.943521 11415.958351 31395.96349 C 11428.991901 31398.98346 11452.039033 31430.931553 11480.013483 31483.065755 C 11524.995127 31569.055399 11686.007159 31850.071463 11752.923315 31960.061914 C 11775.016772 31995.98365 11857.986447 32137.922194 11937.936153 32274.93342 C 12097.040837 32550.068492 12136.936217 32616.984647 12259.960218 32825.044618 C 12328.942668 32942.028681 12395.064095 33058.059069 12609.958732 33435.078359 C 12619.972314 33451.926607 12664.953958 33529.968965 12712.001896 33610.077616 C 12928.962828 33979.944348 13127.009217 34324.06187 13240.019637 34524.969283 C 13308.048412 34645.926989 13388.951793 34788.024478 13419.946212 34839.999735 C 13452.053251 34891.974991 13543.923887 35049.967054 13624.986213 35189.998249 C 13707.002214 35330.029444 13799.031796 35488.021507 13830.979889 35539.996763 C 13861.974308 35591.97202 13885.975115 35638.066284 13882.955146 35642.039927 C 13881.047797 35646.967245 13668.060508 35649.987214 13409.93263 35649.987214 C 13047.059511 35649.987214 12938.022735 35646.967245 12930.075448 35638.066284 C 12924.03551 35631.072671 12900.034704 35591.018345 12876.033897 35550.010345 C 12852.033091 35509.002345 12780.984346 35386.932018 12718.041834 35279.961537 C 12654.940376 35172.991055 12574.99067 35031.052511 12540.022608 34964.931084 C 12506.00822 34898.968603 12474.060127 34840.953409 12469.927538 34835.072417 C 12462.933925 34826.01251 12409.05132 34730.962959 12337.048901 34599.991671 C 12320.995381 34569.950926 12275.060063 34489.047546 12235.005737 34420.065096 C 12194.951411 34350.9237 12121.041643 34218.998738 12070.020062 34125.061807 C 12018.99848 34032.07855 11959.075937 33923.995448 11935.07513 33885.053743 C 11912.027998 33847.065711 11868.953703 33772.043323 11840.025579 33720.068067 C 11810.938509 33667.933865 11758.963253 33576.063229 11724.948865 33515.028065 C 11690.934477 33454.946576 11613.051066 33316.981676 11552.015902 33210.011195 C 11491.934414 33103.040713 11404.991095 32949.975968 11360.009451 32870.026262 C 11314.074133 32790.076556 11250.972675 32678.019811 11218.070908 32620.958291 C 11185.963868 32562.943097 11154.96945 32510.96784 11150.995806 32506.040522 C 11136.054907 32486.967034 10937.054843 32126.954938 10910.987742 32073.072333 C 10897.000517 32043.985263 10879.993323 32019.984457 10872.999711 32019.984457 C 10858.058812 32019.984457 10868.072393 32002.977263 10728.994873 32255.065203 C 10540.008391 32593.937515 10509.013972 32651.95271 10450.045103 32760.035811 C 10419.050684 32818.051006 10381.062653 32887.98713 10365.009133 32915.007906 C 10350.068234 32942.982355 10272.979551 33077.927287 10194.937194 33214.938513 C 10117.053783 33353.062359 10032.971487 33501.04084 10009.924355 33545.06881 C 9973.048944 33611.984965 9921.073688 33704.014547 9716.987361 34060.053 C 9706.020105 34078.967543 9648.004911 34184.98435 9586.969747 34294.9748 C 9527.047204 34404.965251 9456.952134 34531.009221 9429.931359 34575.03719 C 9369.055141 34678.034028 9235.063884 34914.068448 9130.954426 35104.962279 C 9085.972782 35187.931954 9033.997526 35282.027831 9014.924037 35314.929599 C 8996.009495 35347.990312 8948.007882 35433.979956 8910.019851 35505.982376 C 8871.078145 35578.938469 8832.931168 35640.927307 8824.030206 35643.947276 C 8814.970299 35646.967245 8598.963042 35649.987214 8344.014079 35649.987214 C 7933.934075 35649.987214 7880.05147 35647.920919 7880.05147 35635.046315 Z M 7880.05147 35635.046315 " stroke="#004aad" stroke-width="1" stroke-opacity="1" stroke-miterlimit="4"/><path stroke-linecap="butt" transform="matrix(0.024576, 0, 0, -0.024576, 3.000034, 1568.891797)" fill-opacity="1" fill="#004aad" fill-rule="nonzero" stroke-linejoin="miter" d="M 18105.030776 35639.019958 C 17975.013162 35626.940082 17864.069037 35601.985601 17724.991517 35556.050283 C 17556.985872 35499.942438 17477.036166 35461.954406 17357.985809 35382.958375 C 17155.965776 35248.967118 17028.968132 35083.027768 16942.024813 34839.999735 C 16914.050363 34761.003703 16902.924162 34716.975734 16867.956099 34555.010027 C 16857.942518 34507.962089 16854.922549 34283.05387 16854.922549 33545.06881 C 16854.922549 32685.967098 16856.988843 32583.923934 16873.042363 32482.039716 C 16918.024007 32194.030039 17014.027232 31989.943712 17189.026489 31806.997168 C 17378.966646 31610.063399 17635.028229 31477.025817 17941.952449 31418.056948 C 18054.009194 31395.96349 18063.069101 31395.96349 19454.956926 31391.989847 C 20882.925433 31388.969878 20971.935046 31391.036173 21165.054118 31426.957909 C 21389.962336 31469.07853 21649.997563 31594.00988 21810.055921 31738.014718 C 21989.028822 31899.02675 22133.987335 32202.931001 22178.968978 32514.941484 C 22198.996141 32647.025392 22199.949816 32701.066943 22199.949816 33490.073585 C 22199.949816 33948.949929 22195.022498 34376.990801 22189.936234 34441.045933 C 22174.04166 34633.052384 22140.980947 34761.957377 22067.071179 34925.035704 C 21978.061566 35121.015799 21859.011208 35265.974312 21700.065471 35371.037444 C 21460.057407 35530.936856 21238.010211 35615.019152 20991.008535 35639.973632 C 20870.050828 35652.053509 18231.074746 35652.053509 18105.030776 35639.019958 Z M 20703.952533 34904.054867 C 20880.06441 34877.034092 20987.988566 34833.959797 21096.071667 34747.970153 C 21206.062118 34658.960539 21282.038181 34534.982864 21317.006243 34384.938088 C 21334.013437 34311.02832 21334.967111 34247.926862 21334.967111 33509.941802 L 21334.967111 32715.054168 L 21312.078925 32637.01181 C 21252.951111 32431.018134 21149.000598 32304.974164 20964.941434 32215.010877 C 20792.962146 32130.928582 20863.057216 32135.061171 19515.038415 32135.061171 C 18219.948544 32135.061171 18260.00287 32132.994876 18111.070714 32191.963745 C 18009.02755 32232.018071 17964.999581 32259.992521 17899.0371 32324.047653 C 17803.033874 32417.984584 17756.93961 32503.974228 17722.925222 32650.045361 C 17697.017067 32767.029424 17680.963548 33766.95706 17698.924416 34140.002706 C 17711.957966 34397.971638 17745.972354 34517.97567 17842.929254 34644.973315 C 17889.023518 34706.008478 17903.010743 34719.995703 17975.013162 34775.944602 C 18060.049132 34843.019704 18188.954125 34888.955022 18342.018871 34908.982185 C 18376.986933 34914.068448 18898.964735 34918.042092 19504.071159 34918.995766 C 20452.977213 34919.949441 20616.05554 34918.042092 20703.952533 34904.054867 Z M 20703.952533 34904.054867 " stroke="#004aad" stroke-width="1" stroke-opacity="1" stroke-miterlimit="4"/><path stroke-linecap="butt" transform="matrix(0.024576, 0, 0, -0.024576, 3.000034, 1568.891797)" fill-opacity="1" fill="#004aad" fill-rule="nonzero" stroke-linejoin="miter" d="M 25564.036354 35635.046315 C 25554.976447 35614.065477 25565.943703 31415.036979 25574.049935 31402.003429 C 25585.017191 31384.04256 26384.037415 31384.996235 26398.024639 31402.957103 C 26405.018252 31411.063336 26408.991895 31648.05143 26408.038221 32152.068365 C 26408.038221 32557.062104 26411.05819 32894.027068 26415.031833 32898.954386 C 26422.97912 32912.941611 28477.988563 32914.054231 28512.002951 32901.020681 C 28525.036501 32895.934417 28569.064471 32846.025455 28610.072471 32791.03023 C 28650.921525 32734.922385 28698.923138 32671.979873 28714.976658 32650.999035 C 28731.983852 32630.018198 28772.038178 32578.042942 28804.939945 32534.968647 C 28838.000659 32492.053298 28903.009465 32408.924677 28950.057404 32349.955808 C 28996.946396 32290.986939 29080.075017 32184.970132 29135.070242 32115.034008 C 29190.065468 32044.938937 29277.962461 31934.948487 29329.937717 31871.0523 C 29446.92178 31728.001137 29482.048788 31683.019493 29579.005688 31549.98191 C 29620.967363 31493.079336 29667.061626 31432.997847 29682.002526 31418.056948 L 29708.069627 31389.923552 L 30224.007491 31389.923552 C 30581.953293 31389.923552 30739.945356 31392.943521 30739.945356 31401.049754 C 30739.945356 31406.930746 30670.009231 31493.079336 30584.019587 31593.056205 C 30498.029943 31693.033074 30409.02033 31800.003556 30386.926872 31830.0443 C 30364.992361 31859.926099 30285.042655 31954.97565 30210.020266 32040.01162 C 30025.961102 32250.932614 29684.06882 32661.012617 29582.979331 32792.937579 C 29535.931393 32854.926417 29503.029625 32907.060619 29506.049594 32915.007906 C 29509.069563 32922.955192 29527.984106 32932.015099 29548.011269 32935.988743 C 29688.996138 32959.989549 29911.997008 33032.945643 30018.96749 33090.007163 C 30185.065786 33179.97045 30292.989941 33282.967288 30381.999555 33437.939383 C 30481.976424 33611.984965 30529.024362 33768.06968 30554.932517 34016.025031 C 30591.966874 34379.057095 30560.018781 34727.94299 30468.942873 34957.937472 C 30386.926872 35165.997443 30238.948391 35338.930405 30042.968296 35457.027088 C 29898.963458 35543.970407 29671.03527 35615.972826 29463.928974 35639.973632 C 29407.0264 35646.01357 28693.042146 35649.987214 27472.020989 35649.987214 C 25801.978123 35649.987214 25568.963672 35647.920919 25564.036354 35635.046315 Z M 29209.933685 34908.982185 C 29482.048788 34874.967797 29661.975363 34733.029253 29715.063239 34507.962089 C 29751.93865 34352.989994 29743.037689 34112.981931 29693.923456 33960.076131 C 29637.974556 33782.056905 29517.970525 33672.066454 29319.924135 33618.024903 L 29235.047111 33594.977771 L 27835.053054 33594.977771 C 27053.993699 33594.977771 26429.019058 33598.951415 26422.97912 33604.037678 C 26412.965539 33611.031291 26409.94557 33752.969835 26409.94557 34260.006738 C 26409.94557 34614.93257 26412.965539 34909.935859 26416.939182 34912.955828 C 26428.065384 34925.035704 29115.996754 34921.062061 29209.933685 34908.982185 Z M 29209.933685 34908.982185 " stroke="#004aad" stroke-width="1" stroke-opacity="1" stroke-miterlimit="4"/><path stroke-linecap="butt" transform="matrix(0.024576, 0, 0, -0.024576, 3.000034, 1568.891797)" fill-opacity="1" fill="#004aad" fill-rule="nonzero" stroke-linejoin="miter" d="M 41632.019922 35288.067769 L 41635.039891 34925.035704 L 46004.935057 34925.035704 L 46003.027709 35285.0478 L 46000.961414 35645.059896 L 43814.980684 35647.920919 L 41629.953628 35649.987214 Z M 41632.019922 35288.067769 " stroke="#004aad" stroke-width="1" stroke-opacity="1" stroke-miterlimit="4"/><path stroke-linecap="butt" transform="matrix(0.024576, 0, 0, -0.024576, 3.000034, 1568.891797)" fill-opacity="1" fill="#004aad" fill-rule="nonzero" stroke-linejoin="miter" d="M 49215.95685 35642.039927 C 49212.936881 35636.953663 49513.980108 35330.029444 49884.005786 34959.050092 C 50770.923002 34068.953961 51270.012618 33560.963384 51270.012618 33545.06881 C 51270.012618 33538.075197 51047.965423 33309.988064 50776.96294 33038.985581 C 50028.010624 32288.920645 49174.94885 31421.076917 49171.928881 31404.069723 C 49169.067858 31391.989847 49239.957657 31389.923552 49689.93304 31389.923552 L 50212.069788 31389.923552 L 50264.998719 31443.011429 C 50293.926843 31470.985879 50444.925294 31628.024268 50601.010008 31789.989974 C 50755.982103 31951.955681 50982.956616 32185.923807 51105.026943 32310.060428 C 51404.95755 32616.030973 51781.023165 33007.037488 51798.030359 33031.038294 C 51805.023971 33041.051876 51819.011196 33049.952837 51829.024778 33049.952837 C 51846.031972 33049.952837 52015.944965 32883.059812 52261.039293 32624.931934 C 52317.941867 32565.009391 52480.066519 32397.957421 52619.938768 32255.065203 C 52760.923638 32112.014039 52954.996384 31909.994006 53051.953284 31804.930874 C 53149.069129 31700.980361 53277.974123 31566.03543 53339.009286 31505.000267 L 53449.953411 31395.009816 L 53973.043833 31389.923552 C 54259.94089 31387.062529 54498.041605 31385.949909 54502.968923 31388.016204 C 54506.942566 31389.923552 54505.988892 31398.98346 54501.061574 31408.043367 C 54495.97531 31416.944328 54272.020766 31642.965167 54004.991927 31909.994006 C 53737.009413 32177.022845 53453.927054 32459.946259 53376.997317 32538.94229 C 53298.95496 32619.050942 53047.025966 32870.026262 52817.985158 33097.95445 C 52587.990675 33326.995258 52398.050519 33521.068003 52395.03055 33529.968965 C 52391.056906 33543.002515 52665.079358 33821.952285 53435.012511 34590.931764 C 54010.07819 35163.931148 54479.921791 35636.953663 54479.921791 35642.039927 C 54479.921791 35646.967245 54241.026347 35649.033539 53949.043027 35647.920919 L 53418.005317 35645.059896 L 53113.942121 35334.956762 C 52945.936476 35165.043768 52763.943607 34976.057286 52707.994707 34915.022123 C 52652.045807 34854.940634 52497.073713 34692.974927 52364.036131 34555.010027 C 51977.956934 34156.056225 51915.968096 34088.981124 51877.980065 34040.979511 C 51853.025584 34009.031418 51850.005615 34006.965123 51822.031165 34019.045 C 51791.036746 34032.07855 51662.926482 34160.029869 51359.975906 34479.987639 C 51263.97268 34581.077128 51027.93826 34826.01251 50834.978134 35022.946279 C 50642.971683 35220.992668 50439.044302 35432.072608 50381.982782 35494.061445 C 50324.921262 35554.937663 50267.065014 35615.019152 50254.031463 35628.052702 L 50229.076982 35649.987214 L 49725.060048 35649.987214 C 49448.017627 35649.987214 49218.976819 35646.01357 49215.95685 35642.039927 Z M 49215.95685 35642.039927 " stroke="#004aad" stroke-width="1" stroke-opacity="1" stroke-miterlimit="4"/><path stroke-linecap="butt" transform="matrix(0.024576, 0, 0, -0.024576, 3.000034, 1568.891797)" fill-opacity="1" fill="#004aad" fill-rule="nonzero" stroke-linejoin="miter" d="M 41636.94724 33893.954704 C 41632.973597 33889.981061 41629.953628 33728.015354 41629.953628 33535.055228 C 41629.953628 33250.065521 41632.973597 33179.97045 41643.940853 33171.069489 C 41653.954434 33162.963256 42222.980175 33161.055907 43796.066141 33162.009582 L 45934.998933 33165.029551 L 45938.018902 33528.061616 L 45939.926251 33889.981061 L 43813.073335 33889.981061 C 42641.96114 33889.981061 41676.047892 33893.00103 41664.92169 33896.020999 C 41653.954434 33899.040968 41640.920884 33897.928347 41636.94724 33893.954704 Z M 41636.94724 33893.954704 " stroke="#004aad" stroke-width="1" stroke-opacity="1" stroke-miterlimit="4"/><path stroke-linecap="butt" transform="matrix(0.024576, 0, 0, -0.024576, 3.000034, 1568.891797)" fill-opacity="1" fill="#004aad" fill-rule="nonzero" stroke-linejoin="miter" d="M 41632.019922 31762.969199 L 41635.039891 31395.009816 L 43818.000653 31391.989847 L 46000.00774 31389.923552 L 46000.00774 31744.054656 C 46000.00774 31938.92213 45996.987771 32105.020426 45993.967802 32113.921388 C 45987.927864 32129.021233 45787.020451 32129.974907 43808.940746 32129.974907 L 41629.953628 32129.974907 Z M 41632.019922 31762.969199 " stroke="#004aad" stroke-width="1" stroke-opacity="1" stroke-miterlimit="4"/><path stroke-linecap="butt" transform="matrix(0.024576, 0, 0, -0.024576, 3.000034, 1568.891797)" fill-opacity="1" fill="#004aad" fill-rule="nonzero" stroke-linejoin="miter" d="M 25489.96764 29765.974951 C 25489.96764 29758.981338 25660.039579 29635.957337 25770.03003 29563.001244 C 26054.066063 29374.968436 26614.031897 29068.997891 26889.961698 28951.060153 C 26947.023217 28927.059347 26977.063962 28914.025797 27215.005731 28810.075284 C 27911.982791 28505.058413 28862.001465 28176.994411 29664.995332 27964.960797 C 29741.925069 27943.979959 29843.014558 27916.959184 29890.062496 27903.925634 C 30237.994716 27809.035028 30635.041169 27717.95912 30964.058846 27658.990252 C 31195.960677 27616.074903 31229.021391 27604.948701 31202.95429 27579.040546 C 31197.073297 27573.000608 31116.964646 27558.059708 31023.981389 27544.072483 C 30852.002101 27518.005382 30760.926193 27500.044514 30470.055493 27428.995769 C 30018.013815 27319.005319 29701.076014 27205.041225 29325.010399 27017.962092 C 29023.967172 26866.963641 28848.967915 26748.072229 28680.96227 26580.066584 C 28533.937462 26431.929157 28460.027694 26309.064102 28413.933431 26135.018519 C 28391.045244 26046.96258 28388.025275 26022.961774 28394.065213 25933.952161 C 28409.006113 25678.049523 28532.983788 25459.022296 28779.03179 25257.002264 C 29074.035079 25013.020557 29432.934555 24838.974974 30029.934746 24649.988492 C 30388.039493 24536.978072 30556.045137 24498.036366 31040.034909 24415.066691 C 31497.003904 24337.024334 31768.006387 24313.977202 32333.058485 24303.963621 C 32725.018674 24296.970008 32752.039449 24292.996365 32715.005092 24255.962008 C 32700.064193 24241.021109 32210.988158 24077.942782 32025.021645 24025.967525 C 31635.922479 23916.930749 31405.927997 23857.008206 31014.921482 23760.051306 C 30768.078751 23698.062469 30522.984424 23634.961011 30471.962842 23617.953817 C 30360.065043 23582.985755 30217.967553 23517.976948 30134.997878 23465.048017 C 29859.068078 23288.93614 29757.978588 22896.022276 29897.056109 22539.983824 C 29946.011396 22415.052474 30001.006621 22341.937435 30224.961166 22104.94934 C 30495.009974 21819.005958 30597.053138 21682.948406 30688.923774 21489.034606 C 30749.005263 21362.990636 30790.013263 21209.925891 30797.006876 21080.067223 C 30803.046814 20967.056804 30782.065976 20828.932958 30714.037201 20521.055064 C 30635.041169 20165.970286 30566.058719 19949.963028 30379.93326 19469.9469 C 30255.955585 19152.055425 30053.935552 18748.969034 29832.047302 18380.055977 C 29681.048851 18130.034332 29325.010399 17626.017398 29120.924072 17373.929458 C 29085.002335 17330.060434 29041.92804 17276.018883 29024.920846 17255.038046 C 29009.026272 17234.057208 28943.063791 17152.994882 28879.962333 17076.065145 C 28816.066147 16998.022788 28755.984658 16923.0004 28745.017402 16909.013175 C 28734.050146 16894.072276 28643.927913 16782.01553 28543.951044 16658.991529 C 28302.989306 16359.060922 28279.942174 16323.933914 28279.942174 16250.024146 C 28279.942174 16203.929882 28316.976531 16154.020921 28358.938205 16144.961014 C 28398.992531 16136.060052 28460.981369 16160.060859 28663.955076 16261.945077 C 28936.070179 16398.956303 29245.060693 16579.041823 29559.932199 16785.035499 C 29629.073595 16830.017143 29730.004139 16895.02595 29784.999364 16930.947687 C 29962.064916 17043.958106 30659.99565 17536.05411 30820.054008 17660.031785 C 30866.943 17697.066142 31006.020521 17804.036624 31129.998196 17900.039849 C 31253.975872 17994.930455 31445.028648 18147.9952 31555.019099 18239.071108 C 31665.009549 18330.941744 31777.066294 18423.925001 31805.040744 18445.064784 C 31891.030388 18514.047234 32268.049678 18855.939516 32460.056129 19039.99868 C 32561.940347 19136.95558 32662.076162 19231.051457 32683.056999 19249.012325 C 32721.04503 19283.026713 32982.033932 19564.042777 33100.925343 19699.941383 C 33250.016445 19870.013322 33474.924664 20161.042968 33593.021347 20334.929605 C 33870.063768 20745.009608 34004.055025 20999.004897 34128.986375 21353.930729 C 34179.054282 21496.981893 34183.027926 21524.002669 34162.047088 21572.957956 C 34138.046282 21626.045832 34117.065444 21644.006701 34076.057444 21644.006701 C 34015.022281 21644.006701 34005.962374 21633.993119 33782.961504 21320.075287 C 33655.963859 21140.943441 33568.066866 21033.019285 33370.020477 20810.972089 C 33075.017188 20480.047063 32664.937185 20073.940704 32389.007384 19839.018903 C 32347.04571 19804.050841 32279.970608 19744.923027 32238.962608 19709.00129 C 32121.978545 19605.050777 31459.969548 19077.986711 31284.97029 18950.035392 C 31240.942321 18917.928353 31174.026165 18868.019392 31134.925514 18840.044942 C 30948.005326 18701.921096 30916.057233 18679.986584 30897.937419 18679.986584 C 30872.029264 18679.986584 30875.049233 18724.014553 30904.931032 18775.98981 C 30917.964582 18799.036942 30952.932644 18875.966679 30981.06604 18946.061749 C 31009.04049 19016.951548 31078.976614 19184.957193 31136.991809 19318.94845 C 31247.935933 19577.076328 31250.002228 19581.049971 31366.986291 19925.008547 C 31435.015067 20126.074906 31520.051036 20446.98635 31548.979161 20610.064677 C 31624.955223 21043.986541 31596.980773 21424.0258 31466.009486 21758.924469 C 31425.001485 21863.033927 31317.077329 22083.968502 31274.003034 22151.997278 C 31194.053328 22278.041248 31174.026165 22306.015698 31129.998196 22357.990954 C 31023.981389 22484.988599 30782.065976 22705.923174 30674.936549 22773.95195 C 30580.999618 22834.987113 30587.039556 22844.04702 30755.045201 22889.028664 C 30821.007682 22906.035858 30906.997326 22928.924044 30944.985357 22940.050246 C 30983.927063 22951.017502 31166.078879 22998.06544 31349.979097 23044.954432 C 31534.038261 23092.002371 31734.945674 23143.977627 31795.027163 23160.031147 C 31856.062326 23177.03834 31974.953738 23208.986434 32059.989707 23230.920946 C 32145.025677 23253.014403 32293.957833 23295.929752 32389.961059 23326.924171 C 32485.964284 23356.964916 32598.974704 23393.045598 32639.982704 23406.079148 C 32777.947604 23448.040823 33314.071578 23628.921073 33449.970183 23678.98898 C 33871.017443 23833.0074 34340.066314 24035.027433 34711.045666 24220.040271 C 34897.012179 24313.023528 35353.981175 24564.952522 35491.946075 24652.054786 C 35538.040339 24680.029236 35589.061921 24711.023655 35604.956495 24721.037236 C 35621.963689 24732.004492 35697.939751 24780.959779 35775.028434 24831.027687 C 35896.939815 24910.977393 35958.928653 24955.959037 36138.060499 25092.970263 C 36409.062982 25301.030233 36647.004751 25590.947259 36739.988008 25830.001648 C 36769.075078 25904.070362 36800.069497 26069.056038 36800.069497 26151.072038 C 36800.069497 26409.994645 36687.059077 26669.076197 36481.065401 26883.970835 C 36303.046175 27068.983673 35994.055661 27256.062807 35630.069921 27400.067645 C 35453.00437 27470.00377 35452.050695 27490.984607 35624.983658 27514.985413 C 35802.04921 27539.939894 36074.959041 27593.027771 36450.070982 27675.043771 C 37031.017653 27802.99509 37764.075396 28094.024736 38139.982065 28345.95373 C 38551.015743 28620.929856 38760.983062 28853.944308 38849.992676 29134.960372 C 38881.940769 29233.983566 38888.934381 29409.936498 38864.933575 29517.065925 C 38846.972707 29597.015631 38808.031001 29707.959756 38781.9639 29748.014082 L 38767.976675 29769.948594 L 38081.013197 29769.948594 L 38105.014003 29727.033245 C 38184.010035 29586.048375 38204.037198 29455.077088 38160.962903 29347.94766 C 38066.072297 29105.078573 37755.969163 28870.951502 37271.979392 28674.017733 C 36928.020815 28533.986538 36403.023044 28382.988087 36050.00456 28320.999249 C 35987.062048 28310.985668 35855.931815 28287.938536 35759.928589 28270.931342 C 35384.975594 28205.922535 35109.045793 28176.040736 34574.988115 28145.046318 C 34285.071089 28128.039124 33686.958278 28121.045511 33474.924664 28132.012767 C 33278.94457 28142.026349 32791.934829 28183.034349 32729.945992 28194.955279 C 32715.958767 28197.975248 32642.048999 28207.035155 32564.960316 28214.982442 C 32199.067228 28255.036768 31610.967998 28349.927373 31134.925514 28444.976925 C 30468.942873 28578.014507 30244.034654 28627.923469 29919.944295 28715.025733 C 29823.94107 28739.980214 29685.022495 28777.014571 29612.066401 28795.929113 C 29473.942555 28832.009796 29335.02398 28869.997827 29190.065468 28913.072122 C 29143.017529 28927.059347 29048.921653 28955.033797 28979.939202 28975.06096 C 28557.938269 29096.972341 27586.938757 29439.023568 27003.925792 29669.971725 L 26752.950472 29769.948594 L 26120.982219 29769.948594 C 25774.003673 29769.948594 25489.96764 29768.041245 25489.96764 29765.974951 Z M 33559.960634 26979.97406 C 34534.933789 26942.939703 35352.073826 26743.93964 35759.928589 26444.009033 C 35892.966172 26345.939513 35980.068436 26231.975419 35980.068436 26155.045682 C 35980.068436 26077.956999 35853.070791 25895.964129 35713.039597 25774.052749 C 35251.938012 25372.078978 34666.064022 25134.931937 33860.050187 25024.941487 C 33445.042866 24968.038913 32736.939604 24944.991781 32314.938671 24974.078851 C 31667.075844 25019.060495 31305.951128 25071.035751 30865.035651 25181.979876 C 30776.979713 25204.073333 30687.016425 25226.007845 30664.922968 25230.935163 C 30412.993973 25291.970326 30018.96749 25435.975164 29712.04327 25580.933677 C 29665.949006 25602.07346 29626.053626 25620.034329 29623.033657 25620.034329 C 29620.013688 25620.034329 29589.972944 25637.041523 29557.071176 25657.068686 C 29335.02398 25788.993648 29219.947266 25884.043199 29219.947266 25933.952161 C 29219.947266 25995.940998 29386.999237 26139.945837 29595.059207 26258.04252 C 29757.024914 26348.959482 30176.959553 26516.965126 30480.069075 26608.994709 C 30621.053944 26653.022678 31003.954226 26742.985965 31261.923158 26794.961222 C 31733.991999 26887.944478 32310.965027 26955.01958 32859.963605 26980.927735 C 32995.067482 26986.967673 33106.965281 26993.961285 33109.98525 26996.981254 C 33113.005219 27000.001223 33155.920569 27000.001223 33205.034802 26996.02758 C 33254.943763 26993.007611 33414.048447 26986.013998 33559.960634 26979.97406 Z M 33559.960634 26979.97406 " stroke="#004aad" stroke-width="1" stroke-opacity="1" stroke-miterlimit="4"/><path stroke-linecap="butt" transform="matrix(0.024576, 0, 0, -0.024576, 3.000034, 1568.891797)" fill-opacity="1" fill="#004aad" fill-rule="nonzero" stroke-linejoin="miter" d="M 25409.06426 14328.052286 C 25406.044291 14061.977121 25403.977996 13666.996963 25403.977996 13450.036031 L 25404.93167 13055.055873 L 26223.025382 13052.035904 L 27040.006474 13049.96961 L 27040.006474 13310.004836 L 26374.977508 13310.004836 C 25728.068355 13310.004836 25709.948541 13310.958511 25699.93496 13329.078325 C 25694.053967 13340.999255 25689.921378 13437.956155 25689.921378 13574.013707 C 25689.921378 13793.040933 25691.033998 13800.034546 25711.061161 13811.001802 C 25726.002061 13818.949088 25836.946185 13821.015383 26083.947862 13820.061709 C 26277.066933 13818.949088 26555.063028 13817.995414 26703.04151 13818.949088 L 26970.070349 13820.061709 L 26970.070349 14060.069773 L 26738.009572 14061.977121 C 26610.058254 14062.930796 26323.955926 14062.930796 26103.02135 14061.023447 L 25701.04758 14057.049804 L 25694.053967 14085.024253 C 25685.947735 14116.972347 25697.073936 14520.058737 25705.974898 14528.959699 C 25708.994867 14531.979668 26008.925474 14537.065931 26373.070159 14539.926955 L 27035.079156 14545.013218 L 27036.986505 14655.003669 C 27039.0528 14716.038832 27036.986505 14775.007701 27035.079156 14788.041251 L 27029.992893 14809.975763 L 25413.037903 14809.975763 Z M 25409.06426 14328.052286 " stroke="#004aad" stroke-width="1" stroke-opacity="1" stroke-miterlimit="4"/><path stroke-linecap="butt" transform="matrix(0.024576, 0, 0, -0.024576, 3.000034, 1568.891797)" fill-opacity="1" fill="#004aad" fill-rule="nonzero" stroke-linejoin="miter" d="M 28715.930332 14802.028476 C 28707.029371 14786.928631 28745.017402 14737.973344 28865.975109 14604.935761 C 29005.052629 14453.937311 29075.942428 14373.987604 29260.955267 14154.960378 C 29335.977655 14067.063385 29407.0264 13986.001059 29418.94733 13975.987477 C 29430.073532 13965.020221 29439.928167 13950.079322 29439.928167 13941.019415 C 29439.928167 13931.959508 29400.986462 13882.050546 29353.938523 13830.07529 C 29305.93691 13777.941088 29235.047111 13698.945057 29197.05908 13655.076033 C 29157.958429 13611.048064 29057.98156 13502.964962 28975.011885 13415.067969 C 28890.929589 13327.01203 28796.038984 13224.015192 28762.978271 13185.073487 C 28730.076503 13146.92651 28696.062115 13108.938478 28687.002208 13100.991191 C 28676.988626 13093.997579 28669.995014 13079.05668 28669.995014 13069.043098 C 28669.995014 13050.923284 28680.96227 13049.96961 28855.007853 13049.96961 L 29040.020691 13049.96961 L 29091.995948 13113.071067 C 29201.032724 13242.929735 29308.956879 13368.020031 29438.974493 13513.932218 C 29513.043207 13597.060839 29586.952975 13681.937863 29603.006494 13703.077646 C 29638.928231 13746.946669 29661.021688 13749.966638 29685.976169 13712.932281 C 29702.983363 13686.070452 29830.934682 13537.933024 29994.966683 13354.98648 C 30038.994653 13306.031193 30104.003459 13231.008805 30138.971522 13190.000804 C 30172.98591 13148.992804 30214.947584 13100.991191 30231.954778 13083.030323 L 30261.995523 13050.923284 L 30443.034718 13048.062261 C 30543.011587 13045.995966 30629.001231 13048.062261 30632.974874 13050.923284 C 30638.061138 13055.055873 30608.974068 13093.043904 30567.966068 13137.071874 C 30528.070688 13179.987223 30425.073849 13295.063937 30340.03788 13392.974511 C 30255.00191 13491.044032 30117.03701 13647.923475 30032.954715 13742.973026 C 29949.98504 13838.022577 29878.936295 13926.078516 29876.075272 13938.95312 C 29870.035333 13958.026609 29881.002589 13975.987477 29936.951489 14038.929989 C 29974.93952 14081.05061 30028.027397 14141.926827 30055.048172 14174.987541 C 30082.068948 14208.048254 30142.945165 14277.984379 30190.946778 14329.959635 C 30355.932454 14511.952505 30600.073107 14792.968569 30600.073107 14802.028476 C 30600.073107 14810.929437 30250.074592 14812.995732 30226.073786 14803.935825 C 30207.953972 14796.942212 29770.058464 14290.064255 29702.029689 14198.034673 C 29678.028882 14165.927634 29653.074402 14140.019479 29645.921843 14140.019479 C 29637.974556 14140.019479 29614.927425 14161.000316 29593.946587 14188.021091 C 29572.96575 14213.929247 29514.950555 14280.050674 29465.041594 14335.045899 C 29380.959299 14428.029155 29308.956879 14513.065125 29157.958429 14699.985312 C 29061.955203 14819.03567 29081.982366 14809.975763 28889.02224 14809.975763 C 28796.992658 14809.975763 28718.950301 14806.00212 28715.930332 14802.028476 Z M 28715.930332 14802.028476 " stroke="#004aad" stroke-width="1" stroke-opacity="1" stroke-miterlimit="4"/><path stroke-linecap="butt" transform="matrix(0.024576, 0, 0, -0.024576, 3.000034, 1568.891797)" fill-opacity="1" fill="#004aad" fill-rule="nonzero" stroke-linejoin="miter" d="M 32258.036096 14477.938117 C 32258.036096 14294.991573 32255.969802 13903.985058 32254.062453 13609.935443 C 32252.949833 13316.044774 32254.062453 13066.976803 32255.969802 13058.075842 C 32261.056065 13042.022323 32275.996965 13039.956028 32395.047322 13039.956028 C 32468.003416 13039.956028 32536.032192 13042.975997 32544.933153 13045.995966 C 32560.032998 13052.035904 32560.986673 13121.972029 32559.079324 13918.925957 C 32557.966703 14473.010799 32553.99306 14789.9486 32546.999448 14798.054833 C 32540.005835 14806.00212 32498.04416 14809.975763 32399.020966 14809.975763 L 32259.943445 14809.975763 Z M 32258.036096 14477.938117 " stroke="#004aad" stroke-width="1" stroke-opacity="1" stroke-miterlimit="4"/><path stroke-linecap="butt" transform="matrix(0.024576, 0, 0, -0.024576, 3.000034, 1568.891797)" fill-opacity="1" fill="#004aad" fill-rule="nonzero" stroke-linejoin="miter" d="M 34349.92095 13942.926764 C 34349.92095 13464.976931 34354.053539 13069.043098 34358.027183 13062.049486 C 34365.020795 13052.989579 34399.988858 13049.96961 34501.078347 13052.035904 L 34635.069604 13055.055873 L 34635.069604 13680.030514 C 34635.069604 14023.98909 34639.043247 14311.045092 34643.01689 14318.038705 C 34657.004115 14338.065868 34670.99134 14322.012348 34707.072023 14240.950022 C 34725.986566 14198.988347 34763.974597 14119.992316 34790.041698 14064.99709 C 34931.026567 13773.01377 34999.055343 13628.055258 35069.945142 13470.063194 C 35113.019437 13374.059969 35168.968336 13251.035968 35193.922817 13196.994417 C 35219.036244 13142.952866 35240.017081 13096.063873 35240.017081 13090.97761 C 35240.017081 13087.003966 35247.964368 13076.036711 35257.97795 13067.930478 C 35271.0115 13055.055873 35305.025888 13052.035904 35419.943656 13049.96961 C 35500.052308 13048.062261 35570.942107 13048.062261 35577.93572 13049.015935 C 35591.922944 13049.96961 35663.925364 13194.928122 35742.921395 13379.940961 C 35768.034822 13437.956155 35851.004497 13615.975381 35926.980559 13774.921119 C 36004.069242 13934.979477 36077.025336 14092.017866 36090.058886 14125.078579 C 36139.014174 14250.963604 36181.929523 14325.985992 36200.049337 14315.018736 C 36204.02298 14312.952441 36204.976655 14030.029028 36201.956686 13686.070452 C 36197.983042 13086.050292 36198.936717 13060.936865 36215.943911 13052.989579 C 36227.070112 13048.062261 36294.939942 13045.995966 36368.054982 13048.062261 L 36499.979944 13052.035904 L 36498.072595 13928.939539 L 36495.052626 14805.048445 L 36299.072531 14808.068414 C 36149.981429 14809.975763 36100.072468 14806.955794 36093.078855 14798.054833 C 36087.038917 14791.06122 36050.00456 14710.952568 36009.950235 14620.035606 C 35970.054854 14528.959699 35902.026079 14384.95486 35858.951784 14298.011542 C 35786.949365 14154.960378 35710.019628 13986.954733 35538.994014 13601.034482 C 35470.965238 13444.949768 35442.037114 13395.040806 35421.056276 13395.040806 C 35414.062664 13395.040806 35391.015532 13433.028837 35370.034695 13480.076776 C 35349.053857 13526.965768 35233.023469 13783.027352 35110.953142 14048.943571 C 34989.041761 14315.018736 34866.971435 14586.974893 34838.996985 14654.049994 C 34811.022535 14720.96615 34784.955434 14782.001313 34780.981791 14789.9486 C 34773.988178 14802.028476 34736.953821 14805.048445 34561.00089 14808.068414 L 34349.92095 14809.975763 Z M 34349.92095 13942.926764 " stroke="#004aad" stroke-width="1" stroke-opacity="1" stroke-miterlimit="4"/></svg>